<?xml version="1.0" standalone="no"?>
<!DOCTYPE svg PUBLIC "-//W3C//DTD SVG 20010904//EN"
 "http://www.w3.org/TR/2001/REC-SVG-20010904/DTD/svg10.dtd">
<svg version="1.0" xmlns="http://www.w3.org/2000/svg"
 width="640.000000pt" height="640.000000pt" viewBox="0 0 640.000000 640.000000"
 preserveAspectRatio="xMidYMid meet">
<metadata>
Created by potrace 1.14, written by Peter Selinger 2001-2017
</metadata>
<g transform="translate(0.000000,640.000000) scale(0.100000,-0.100000)"
fill="#000000" stroke="none">
<path d="M0 3913 c0 -1934 3 -2484 12 -2475 7 7 20 12 30 12 10 0 18 7 18 15
0 32 40 95 60 95 11 0 20 5 20 10 0 21 64 80 87 80 29 0 29 -12 -1 -75 -26
-55 -24 -62 29 -81 34 -11 53 -4 40 16 -3 5 -1 10 5 10 6 0 9 4 5 10 -10 17
50 40 88 33 35 -5 41 -12 57 -66 7 -21 5 -29 -9 -36 -9 -5 -23 -6 -30 -2 -18
12 -61 1 -61 -15 0 -9 12 -14 34 -14 19 0 38 -5 42 -11 3 -6 -1 -10 -12 -9
-36 4 -44 0 -44 -21 0 -16 5 -20 19 -16 12 3 22 -1 25 -9 3 -8 14 -14 25 -14
11 0 23 -9 26 -20 15 -47 149 -94 170 -60 3 6 15 10 26 10 14 0 19 7 19 25 0
16 6 25 15 25 9 0 26 7 40 16 18 12 28 13 44 4 12 -6 21 -8 21 -4 0 4 11 -3
24 -15 18 -17 32 -22 48 -17 29 7 62 77 54 112 -6 21 -11 24 -37 20 -16 -2
-37 -10 -45 -17 -13 -10 -17 -10 -24 0 -10 17 -2 47 16 62 8 6 14 18 14 25 0
19 29 18 36 -1 4 -8 12 -15 20 -15 8 0 14 -9 14 -21 0 -15 6 -20 23 -18 32 3
75 -11 81 -27 4 -11 11 -12 33 -2 34 14 104 86 92 94 -5 3 -9 9 -9 15 0 14 26
11 40 -6 7 -8 23 -15 37 -15 13 0 26 -7 30 -16 3 -8 11 -13 19 -10 7 3 14 0
16 -6 7 -21 38 1 38 27 0 22 -4 25 -27 23 -26 -3 -28 -1 -25 32 2 19 16 58 32
85 22 40 27 61 26 110 -1 55 3 66 46 137 27 43 48 90 48 105 0 53 66 221 108
275 22 29 52 76 68 103 95 173 178 256 396 395 141 90 178 103 178 64 0 -9 23
-40 51 -69 36 -38 56 -51 70 -48 15 4 19 0 19 -17 0 -20 4 -22 32 -16 18 3 36
13 41 21 9 16 27 11 27 -6 0 -6 -4 -7 -10 -4 -6 3 -10 -5 -10 -19 0 -14 5 -28
10 -31 6 -4 10 -3 9 2 -2 11 12 53 18 53 8 0 33 -28 33 -38 0 -5 -9 -21 -21
-36 -11 -14 -25 -41 -30 -59 -5 -18 -38 -65 -73 -105 -69 -76 -192 -256 -209
-306 -10 -30 -37 -72 -126 -196 -76 -105 -38 -94 89 26 36 34 83 74 106 90 39
28 127 105 263 229 76 70 152 133 188 157 29 19 53 14 53 -11 0 -15 -6 -27
-38 -80 -24 -39 6 -22 63 36 65 67 121 146 105 151 -5 2 -10 12 -10 23 0 12
-5 16 -14 13 -33 -13 -22 17 21 60 53 52 67 55 94 24 24 -27 24 -43 0 -76 -25
-37 -35 -71 -23 -85 18 -23 22 -92 7 -114 -8 -12 -62 -56 -120 -98 -103 -75
-125 -98 -125 -130 0 -11 6 -14 23 -10 12 3 27 2 34 -2 16 -11 59 -428 47
-464 -2 -9 2 -19 11 -22 10 -5 13 -15 9 -37 -4 -17 -2 -36 5 -44 8 -10 9 -16
1 -21 -18 -11 1 -27 26 -21 20 5 24 3 24 -15 0 -23 -67 -99 -87 -99 -7 0 -13
-10 -13 -21 0 -16 -5 -20 -20 -16 -24 6 -58 -39 -41 -56 7 -7 15 -6 25 2 13
11 21 8 46 -17 16 -17 30 -38 30 -46 0 -9 4 -16 9 -16 16 0 23 -83 12 -143 -8
-47 -17 -63 -48 -89 -20 -18 -58 -54 -85 -81 -46 -45 -48 -49 -48 -105 0 -54
3 -61 40 -100 37 -38 40 -46 40 -96 0 -48 -3 -57 -30 -79 -46 -39 -80 -96 -80
-133 0 -22 -4 -33 -12 -31 -7 1 -12 -6 -12 -16 1 -13 -3 -16 -16 -12 -26 8
-80 -57 -81 -98 -1 -45 -7 -75 -23 -111 -22 -50 -36 -97 -36 -124 0 -14 -7
-34 -17 -44 -16 -17 48 -18 1995 -18 l2012 0 0 3200 0 3200 -3200 0 -3200 0 0
-2487z m2373 2221 c3 -3 -1 -27 -9 -52 -17 -56 -16 -52 -4 -52 6 0 10 8 10 19
0 27 37 70 60 68 11 -1 20 -4 20 -7 0 -8 184 -5 198 4 6 4 20 3 29 -3 13 -7
23 -5 35 6 20 18 24 12 31 -42 l4 -30 8 33 c4 17 13 32 21 32 16 0 28 -17 15
-22 -5 -1 -13 -16 -17 -32 -5 -21 -4 -27 5 -22 17 11 9 -31 -14 -74 -14 -26
-20 -31 -23 -17 -5 23 -23 22 -29 -3 -6 -24 -28 -26 -37 -4 -6 15 -10 14 -32
-7 -24 -23 -26 -23 -39 -6 -12 17 -14 16 -34 -9 -20 -25 -22 -26 -46 -10 -14
9 -25 21 -25 27 0 12 -57 7 -85 -8 -11 -5 -31 -7 -45 -3 -20 5 -24 11 -22 33
5 36 -11 34 -25 -3 -13 -34 -33 -40 -33 -11 0 11 -5 23 -11 27 -8 4 -8 9 0 17
17 17 13 27 -8 27 -25 0 -37 18 -22 33 6 6 11 17 11 25 0 8 9 27 21 43 15 22
28 29 53 29 18 0 35 -3 39 -6z m565 -18 c12 19 40 23 58 9 15 -11 23 -11 44 0
26 13 70 4 70 -15 0 -5 9 -1 20 10 24 24 34 25 55 4 14 -15 18 -15 41 1 23 15
27 15 50 0 16 -10 24 -25 24 -43 0 -37 -28 -122 -48 -144 -19 -22 -61 -23 -68
-3 -6 14 -11 13 -40 -4 l-34 -20 0 24 c0 32 -21 36 -47 8 -27 -28 -53 -30 -53
-3 0 25 -15 26 -32 1 -19 -26 -57 -36 -64 -17 -5 13 -10 14 -32 3 -15 -7 -36
-12 -47 -12 -17 0 -20 6 -17 38 2 21 -2 37 -8 37 -16 0 -12 27 15 85 26 58 55
73 88 46 12 -10 21 -12 25 -5z m578 -15 c3 -14 7 -31 9 -38 2 -7 0 -15 -4 -17
-5 -3 -11 -20 -15 -37 -8 -42 -43 -89 -66 -89 -13 0 -17 5 -14 14 10 25 -16
28 -35 5 -14 -17 -22 -21 -32 -13 -8 6 -27 11 -43 12 -39 3 -42 7 -22 37 9 14
13 25 9 25 -3 0 3 10 14 23 11 12 30 41 42 65 24 47 61 60 61 21 0 -21 1 -21
24 4 30 32 64 27 72 -12z m101 12 l-5 -28 20 28 c22 30 65 37 74 12 5 -13 9
-13 33 0 25 12 31 12 50 -2 14 -9 21 -22 18 -34 -3 -10 0 -20 5 -21 13 -5 -26
-105 -52 -133 -14 -15 -29 -21 -42 -17 -17 4 -19 11 -15 43 6 48 -18 62 -35
21 -14 -32 -38 -62 -50 -62 -4 0 -8 10 -9 23 0 13 -3 16 -6 8 -3 -7 -14 -22
-24 -32 -18 -18 -19 -18 -33 3 -29 41 26 218 67 218 5 0 7 -12 4 -27z m591
-58 c-4 -58 -41 -155 -60 -155 -4 0 -8 14 -8 30 l0 30 -20 -20 c-22 -22 -50
-27 -50 -9 0 6 -9 9 -19 6 -16 -4 -21 1 -23 22 l-3 26 -19 -32 c-23 -38 -54
-48 -79 -26 -13 12 -16 25 -12 45 9 41 -3 34 -21 -12 -9 -22 -20 -40 -24 -40
-10 0 -22 59 -14 71 3 5 1 9 -3 9 -5 0 -19 -19 -31 -42 l-23 -43 5 37 c8 61
67 172 94 176 20 3 22 -1 22 -39 0 -47 9 -45 25 4 8 25 16 33 40 35 18 2 33
-2 41 -12 10 -15 12 -15 18 -1 6 16 37 21 50 8 4 -4 15 -8 24 -8 10 0 16 -7
16 -17 -3 -28 12 -21 26 11 11 26 14 29 32 18 17 -10 19 -21 16 -72z m134 67
c9 -7 18 -6 32 3 20 15 45 9 63 -14 9 -11 12 -12 13 -3 0 7 12 17 27 23 22 8
30 7 39 -6 11 -15 14 -15 37 0 30 19 67 6 67 -23 0 -14 3 -13 15 5 31 44 78
30 87 -27 l4 -25 12 25 c29 64 61 75 63 22 0 -26 1 -26 9 -4 5 12 21 28 36 34
23 11 28 10 45 -11 13 -16 17 -31 12 -54 -22 -115 -75 -181 -100 -125 l-9 21
-22 -23 c-16 -17 -25 -20 -34 -12 -16 13 -62 9 -82 -7 -18 -15 -56 5 -57 29 0
10 -5 8 -16 -7 -17 -25 -53 -31 -53 -9 0 7 -7 19 -16 26 -13 11 -16 10 -20 -7
-6 -20 -46 -40 -52 -25 -12 34 -21 36 -46 9 -30 -33 -56 -35 -63 -6 -5 19 -8
20 -17 7 -12 -16 -75 -33 -77 -20 -10 92 -7 123 16 170 21 43 28 50 49 48 14
-2 31 -8 38 -14z m1380 -14 l4 -33 13 27 c13 26 53 44 71 33 6 -4 10 -17 10
-30 0 -13 5 -25 11 -27 7 -2 5 -18 -5 -48 -18 -53 -20 -63 -6 -55 6 3 10 14
10 24 0 10 9 26 19 35 10 10 22 32 25 51 6 32 21 45 51 45 9 0 15 -14 17 -37
l4 -38 13 33 c18 45 45 58 78 37 21 -14 24 -22 20 -53 -3 -21 -14 -62 -25 -92
-19 -50 -21 -80 -4 -54 4 6 22 13 40 16 28 4 32 2 32 -17 0 -33 -12 -38 -32
-13 -14 18 -18 20 -18 6 0 -17 -33 -20 -58 -4 -7 4 -19 5 -27 2 -9 -3 -12 0
-9 8 3 7 -4 23 -14 36 l-19 23 -16 -42 c-21 -52 -37 -45 -38 17 -1 26 -3 39
-6 29 -2 -9 -9 -15 -14 -12 -5 3 -7 0 -4 -7 3 -7 -4 -19 -15 -26 -17 -10 -20
-10 -20 3 0 22 -18 18 -25 -5 -3 -11 -13 -20 -21 -20 -8 0 -14 -9 -14 -19 0
-25 -10 -51 -20 -51 -4 0 -5 11 -2 25 2 13 1 33 -3 42 -5 10 -7 27 -7 38 l2
20 -9 -20 c-5 -11 -18 -29 -30 -39 -21 -20 -22 -20 -41 0 -29 29 -33 89 -8
148 23 55 42 76 69 76 13 0 19 -10 21 -32z m-661 -8 c12 -34 29 -40 29 -10 0
21 1 22 69 24 25 2 49 -3 57 -11 11 -12 18 -11 45 2 28 15 32 15 48 1 13 -11
20 -13 28 -5 17 17 35 0 29 -27 -9 -34 3 -30 15 6 8 21 17 30 32 30 12 0 56 1
97 3 41 2 78 2 82 0 3 -2 2 -17 -3 -35 -6 -21 -5 -36 3 -45 9 -11 6 -25 -13
-63 -26 -54 -39 -63 -40 -27 l0 22 -9 -22 c-10 -25 -20 -29 -37 -12 -8 8 -13
8 -17 0 -11 -17 -24 -13 -32 11 -6 19 -7 19 -16 5 -5 -10 -18 -17 -29 -17 -11
0 -29 -5 -40 -11 -16 -8 -26 -7 -46 6 -18 12 -28 14 -36 6 -13 -13 -54 -15
-61 -2 -3 5 -15 7 -26 4 -13 -3 -22 1 -26 11 -6 15 -8 14 -22 -5 -15 -21 -16
-21 -29 -3 -13 17 -15 17 -23 3 -7 -13 -21 -15 -61 -12 -30 2 -57 -1 -65 -8
-11 -9 -14 -7 -14 8 0 24 40 148 58 181 18 31 41 28 53 -8z m-121 -98 c0 -15
-12 -45 -27 -67 -28 -40 -28 -40 -31 -13 -3 28 32 108 48 108 6 0 10 -12 10
-28z m648 -354 c-6 -24 -23 -56 -38 -73 -15 -16 -32 -39 -38 -50 -11 -19 -11
-19 -12 5 0 14 6 34 13 46 37 62 73 114 78 114 4 0 2 -19 -3 -42z m-733 -384
c46 -5 66 -13 87 -35 30 -30 30 -34 8 -136 -6 -23 -9 -74 -9 -115 1 -83 -41
-274 -70 -324 -18 -31 -43 -96 -46 -124 -1 -8 -7 -26 -12 -40 -14 -33 -8 -38
17 -15 34 31 22 6 -30 -65 -27 -37 -50 -74 -50 -82 0 -9 -7 -21 -15 -28 -8 -7
-15 -17 -15 -22 0 -10 -89 -148 -105 -163 -6 -5 -27 -32 -46 -59 -19 -27 -46
-61 -60 -75 -14 -14 -28 -31 -30 -38 -4 -12 -172 -196 -226 -247 -131 -126
-232 -206 -260 -206 -7 0 -13 -4 -13 -10 0 -5 -11 -10 -25 -10 -29 0 -32 -8
-8 -25 15 -11 16 -16 4 -36 -17 -31 -90 -94 -98 -86 -3 4 2 17 10 31 32 49 57
96 49 96 -4 -1 -18 -7 -30 -14 -17 -9 -39 -10 -74 -5 -29 5 -60 4 -76 -2 -18
-7 -40 -6 -74 3 -39 9 -53 10 -66 0 -9 -7 -31 -19 -49 -27 -17 -8 -34 -19 -37
-24 -6 -9 -36 -6 -71 9 -52 22 -63 17 -205 -89 -124 -93 -172 -125 -245 -166
-27 -15 -63 -37 -80 -49 -16 -11 -52 -32 -80 -47 -27 -14 -90 -48 -140 -75
-127 -72 -135 -73 -185 -24 -51 50 -53 86 -8 167 42 78 99 153 115 153 8 0 16
6 19 14 3 8 13 14 22 14 22 -1 92 29 92 40 0 4 23 16 51 26 28 10 53 25 56 33
3 8 11 12 18 10 6 -3 20 8 29 24 9 16 21 29 25 29 12 0 131 119 131 131 0 6
23 33 50 61 28 28 50 56 50 64 0 8 5 14 11 14 6 0 8 7 5 16 -4 11 1 18 14 21
13 3 20 14 20 28 0 45 8 54 41 42 24 -10 32 -9 39 3 7 11 10 8 10 -14 0 -23 3
-27 11 -19 9 9 9 23 -1 57 -7 26 -16 46 -21 46 -4 0 -1 21 8 47 12 34 13 50 5
64 -17 26 1 29 186 29 178 0 303 19 386 59 23 11 66 31 96 44 78 34 177 140
215 230 15 37 25 70 21 74 -3 4 -22 7 -41 7 -25 1 -35 6 -35 17 0 26 49 107
78 130 22 17 27 28 25 62 -2 59 -24 104 -80 164 -78 85 -137 98 -317 68 -106
-17 -224 -70 -306 -137 -30 -24 -63 -49 -72 -54 -26 -14 -116 -131 -145 -187
-18 -36 -25 -66 -24 -99 0 -27 -6 -68 -14 -92 -8 -24 -12 -51 -9 -60 4 -11 1
-16 -12 -16 -14 0 -15 -3 -6 -12 7 -7 12 -27 12 -46 0 -43 -91 -152 -121 -145
-14 4 -20 -2 -24 -23 -4 -16 -8 -35 -10 -41 -3 -7 -22 -16 -44 -19 -27 -4 -42
-13 -46 -25 -4 -11 -13 -19 -22 -19 -14 0 -49 -24 -95 -65 -10 -8 -22 -15 -28
-15 -5 0 -10 -4 -10 -9 0 -5 -10 -11 -23 -15 -12 -3 -38 -19 -56 -35 -22 -19
-42 -29 -60 -27 -25 2 -26 4 -24 57 2 58 42 174 93 264 15 28 31 64 34 80 4
17 20 46 35 65 15 19 39 56 54 81 14 26 43 59 62 75 20 16 71 63 114 105 89
87 303 267 364 306 23 15 67 46 97 69 30 22 80 54 110 71 30 17 89 50 130 73
41 24 104 57 139 73 36 16 85 49 110 73 50 48 71 55 71 24 0 -11 5 -20 10 -20
14 0 90 38 110 55 8 7 56 20 105 29 92 17 414 46 450 41 11 -2 47 -7 80 -11z
m-1175 -525 c0 -13 -18 -31 -51 -47 -14 -8 -57 -42 -95 -77 -37 -35 -72 -61
-76 -59 -25 16 112 168 164 183 45 13 58 13 58 0z m-2143 -1428 c20 -41 38
-49 62 -27 23 21 75 15 176 -19 39 -13 82 -26 96 -29 14 -3 36 -15 49 -26 13
-11 29 -20 37 -20 7 0 13 -9 13 -20 0 -18 3 -19 20 -8 28 18 33 5 12 -33 -10
-19 -40 -74 -66 -122 -27 -49 -63 -100 -82 -115 -34 -27 -36 -27 -162 -24 -70
2 -156 7 -190 11 -40 5 -100 3 -160 -6 -54 -7 -128 -16 -166 -19 l-69 -7 6 31
c11 56 76 170 173 307 104 145 124 162 186 161 45 -1 50 -4 65 -35z m2585
-163 c-7 -7 -12 -8 -12 -2 0 6 3 14 7 17 3 4 9 5 12 2 2 -3 -1 -11 -7 -17z
m-948 -50 c9 -17 16 -36 16 -42 0 -17 -90 -116 -105 -116 -8 0 -21 10 -29 21
-13 19 -13 26 -1 48 12 24 93 121 100 121 2 0 11 -14 19 -32z m667 -165 c9
-24 7 -30 -11 -45 -28 -23 -44 -13 -35 21 6 24 23 51 31 51 3 0 9 -12 15 -27z
m63 -135 c-9 -50 -26 -92 -44 -105 -9 -6 -22 -30 -28 -52 -12 -40 -28 -59 -39
-47 -12 12 22 100 54 138 18 22 33 48 33 57 0 14 17 41 27 41 1 0 0 -15 -3
-32z m-2434 -421 c0 -17 -64 -79 -73 -71 -13 13 -7 31 18 58 26 28 55 35 55
13z m-415 -927 c3 -5 1 -10 -4 -10 -6 0 -11 5 -11 10 0 6 2 10 4 10 3 0 8 -4
11 -10z m1698 -630 c-3 -11 -10 -23 -16 -27 -5 -3 -8 -2 -5 3 3 5 8 17 11 27
9 24 16 22 10 -3z"/>
<path d="M3616 6012 c-2 -4 -1 -14 5 -22 7 -12 9 -10 9 8 0 23 -5 28 -14 14z"/>
<path d="M3125 4151 c-3 -5 -1 -12 5 -16 5 -3 10 1 10 9 0 18 -6 21 -15 7z"/>
<path d="M178 1501 c-2 -18 -10 -27 -26 -29 -13 -2 -21 -9 -19 -15 3 -7 10
-11 16 -9 6 1 11 -1 12 -5 0 -5 3 -24 5 -43 3 -19 7 -62 8 -95 5 -89 3 -85 31
-72 14 7 25 20 25 29 0 9 6 18 13 21 8 3 6 11 -9 28 -26 30 -36 57 -23 64 5 4
16 20 25 37 l16 30 -34 -7 c-33 -7 -33 -7 -14 14 10 11 23 18 27 15 21 -13 6
14 -20 37 l-30 26 -3 -26z"/>
</g>
</svg>
